<svg xmlns="http://www.w3.org/2000/svg" id="canvas" viewBox="72.521 298.391 354.068 95.205"><path d="M 86.52,339.02 C 87.09 339.04, 87.72 338.86, 89.04 338.41 C 90.36 337.96, 91.31 337.66, 93.14 336.77 C 94.96 335.89, 96.12 335.23, 98.18 333.99 C 100.25 332.75, 101.34 332.01, 103.47 330.58 C 105.59 329.15, 106.75 328.38, 108.82 326.84 C 110.89 325.31, 111.94 324.48, 113.82 322.90 C 115.70 321.33, 116.61 320.50, 118.22 318.95 C 119.84 317.40, 120.60 316.65, 121.89 315.15 C 123.17 313.64, 123.71 312.80, 124.63 311.41 C 125.56 310.01, 125.92 309.37, 126.50 308.17 C 127.08 306.98, 127.30 306.42, 127.53 305.42 C 127.76 304.43, 127.81 303.93, 127.64 303.20 C 127.48 302.46, 127.26 302.12, 126.72 301.77 C 126.19 301.42, 125.78 301.31, 124.98 301.45 C 124.17 301.59, 123.70 301.78, 122.71 302.47 C 121.71 303.16, 121.18 303.67, 119.99 304.90 C 118.81 306.13, 118.20 306.91, 116.80 308.63 C 115.39 310.36, 114.62 311.33, 112.96 313.54 C 111.31 315.75, 110.43 317.06, 108.53 319.68 C 106.63 322.30, 105.58 323.78, 103.47 326.64 C 101.36 329.49, 100.18 331.04, 97.98 333.98 C 95.77 336.92, 94.60 338.49, 92.47 341.35 C 90.33 344.21, 89.25 345.70, 87.29 348.27 C 85.32 350.84, 84.30 352.09, 82.64 354.21 C 80.98 356.34, 80.19 357.37, 78.99 358.88 C 77.79 360.40, 77.26 360.95, 76.65 361.78 C 76.03 362.60, 75.91 362.82, 75.93 363.00 C 75.94 363.19, 76.14 363.13, 76.71 362.72 C 77.28 362.31, 77.75 361.88, 78.77 360.95 C 79.78 360.02, 80.45 359.26, 81.79 358.07 C 83.12 356.89, 83.93 356.10, 85.45 355.03 C 86.98 353.96, 87.85 353.41, 89.41 352.73 C 90.97 352.06, 91.80 351.86, 93.26 351.64 C 94.73 351.43, 95.40 351.47, 96.73 351.65 C 98.06 351.84, 98.64 352.12, 99.92 352.57 C 101.19 353.02, 101.78 353.41, 103.09 353.90 C 104.40 354.39, 105.06 354.68, 106.47 355.02 C 107.88 355.36, 108.60 355.53, 110.13 355.60 C 111.66 355.67, 112.46 355.67, 114.11 355.38 C 115.76 355.09, 116.64 354.85, 118.38 354.16 C 120.11 353.48, 121.04 353.03, 122.78 351.95 C 124.52 350.87, 125.43 350.16, 127.08 348.76 C 128.72 347.36, 129.56 346.50, 130.99 344.94 C 132.42 343.38, 133.14 342.49, 134.23 340.96 C 135.32 339.44, 135.87 338.63, 136.45 337.30 C 137.03 335.96, 137.27 335.21, 137.15 334.29 C 137.04 333.36, 136.69 332.90, 135.87 332.67 C 135.05 332.45, 134.31 332.55, 133.04 333.16 C 131.77 333.78, 130.96 334.40, 129.53 335.76 C 128.10 337.13, 127.22 338.16, 125.89 339.97 C 124.57 341.78, 123.82 342.90, 122.88 344.82 C 121.95 346.74, 121.56 347.80, 121.20 349.56 C 120.84 351.33, 120.80 352.23, 121.10 353.65 C 121.39 355.07, 121.73 355.74, 122.68 356.66 C 123.64 357.58, 124.36 357.95, 125.85 358.25 C 127.35 358.54, 128.29 358.47, 130.17 358.13 C 132.05 357.79, 133.15 357.41, 135.25 356.54 C 137.35 355.68, 138.56 355.06, 140.69 353.81 C 142.82 352.55, 143.96 351.69, 145.92 350.26 C 147.88 348.83, 148.88 347.99, 150.47 346.65 C 152.06 345.30, 152.90 344.53, 153.87 343.54 C 154.85 342.55, 155.10 342.06, 155.33 341.70 C 155.56 341.34, 155.35 341.39, 155.02 341.73 C 154.70 342.07, 154.29 342.51, 153.69 343.41 C 153.08 344.32, 152.60 345.09, 152.01 346.28 C 151.42 347.47, 151.09 348.29, 150.74 349.36 C 150.39 350.42, 150.24 350.95, 150.26 351.60 C 150.28 352.25, 150.41 352.51, 150.83 352.63 C 151.26 352.75, 151.64 352.67, 152.37 352.20 C 153.09 351.73, 153.54 351.26, 154.47 350.29 C 155.40 349.32, 155.93 348.59, 157.02 347.35 C 158.11 346.12, 158.76 345.33, 159.92 344.11 C 161.08 342.89, 161.68 342.25, 162.81 341.28 C 163.95 340.30, 164.52 339.87, 165.59 339.23 C 166.66 338.59, 167.16 338.36, 168.17 338.09 C 169.19 337.81, 169.64 337.83, 170.65 337.86 C 171.67 337.88, 172.16 338.03, 173.26 338.19 C 174.36 338.35, 174.94 338.52, 176.16 338.66 C 177.37 338.81, 178.04 338.88, 179.35 338.91 C 180.66 338.93, 181.36 338.89, 182.69 338.80 C 184.03 338.70, 184.75 338.64, 186.00 338.42 C 187.25 338.19, 187.93 338.04, 188.94 337.67 C 189.95 337.31, 190.46 337.11, 191.03 336.59 C 191.60 336.06, 191.88 335.56, 191.78 335.06 C 191.68 334.56, 191.37 334.17, 190.54 334.09 C 189.70 334.01, 189.00 334.10, 187.61 334.67 C 186.22 335.23, 185.25 335.77, 183.59 336.93 C 181.92 338.09, 180.87 338.96, 179.28 340.47 C 177.68 341.98, 176.82 342.91, 175.61 344.47 C 174.41 346.03, 173.83 346.88, 173.25 348.27 C 172.67 349.65, 172.54 350.35, 172.71 351.40 C 172.89 352.44, 173.24 352.95, 174.12 353.49 C 174.99 354.04, 175.70 354.19, 177.10 354.13 C 178.50 354.07, 179.43 353.84, 181.11 353.20 C 182.79 352.56, 183.77 352.02, 185.49 350.95 C 187.21 349.87, 188.19 349.14, 189.72 347.82 C 191.24 346.51, 192.02 345.72, 193.13 344.36 C 194.24 343.00, 194.71 342.24, 195.27 341.03 C 195.84 339.81, 195.94 339.19, 195.94 338.28 C 195.94 337.38, 195.69 337.00, 195.25 336.50 C 194.81 336.00, 194.34 335.79, 193.74 335.77 C 193.15 335.75, 192.60 335.96, 192.28 336.41 C 191.96 336.86, 191.86 337.43, 192.13 338.03 C 192.41 338.63, 192.75 339.01, 193.66 339.41 C 194.56 339.81, 195.23 339.95, 196.68 340.02 C 198.13 340.09, 199.06 339.99, 200.90 339.75 C 202.75 339.51, 203.84 339.30, 205.91 338.83 C 207.99 338.36, 209.19 338.00, 211.28 337.42 C 213.36 336.83, 214.52 336.45, 216.33 335.90 C 218.15 335.35, 219.08 335.08, 220.36 334.68 C 221.63 334.28, 222.17 334.05, 222.70 333.92 C 223.23 333.78, 223.23 333.71, 223.00 334.00 C 222.77 334.29, 222.34 334.54, 221.57 335.36 C 220.79 336.18, 220.15 336.83, 219.14 338.09 C 218.13 339.36, 217.48 340.24, 216.50 341.68 C 215.53 343.11, 214.95 343.91, 214.25 345.27 C 213.55 346.64, 213.21 347.33, 212.99 348.49 C 212.77 349.65, 212.78 350.25, 213.16 351.07 C 213.54 351.89, 213.92 352.28, 214.89 352.60 C 215.86 352.92, 216.60 352.94, 218.02 352.68 C 219.43 352.43, 220.27 352.08, 221.98 351.33 C 223.70 350.58, 224.71 350.02, 226.61 348.93 C 228.51 347.84, 229.59 347.16, 231.51 345.87 C 233.42 344.59, 234.46 343.82, 236.17 342.53 C 237.88 341.23, 238.85 340.48, 240.06 339.40 C 241.27 338.32, 241.76 337.70, 242.21 337.12 C 242.67 336.54, 242.64 336.33, 242.35 336.50 C 242.06 336.67, 241.63 336.96, 240.76 337.98 C 239.89 338.99, 239.22 339.79, 237.99 341.57 C 236.77 343.34, 236.07 344.56, 234.64 346.87 C 233.21 349.18, 232.42 350.52, 230.84 353.12 C 229.26 355.72, 228.38 357.13, 226.76 359.86 C 225.14 362.60, 224.33 364.10, 222.76 366.81 C 221.18 369.52, 220.36 370.92, 218.88 373.42 C 217.40 375.92, 216.65 377.19, 215.33 379.32 C 214.02 381.45, 213.41 382.46, 212.31 384.08 C 211.22 385.70, 210.72 386.40, 209.85 387.42 C 208.99 388.44, 208.58 388.76, 208.00 389.18 C 207.43 389.59, 207.26 389.60, 206.99 389.50 C 206.72 389.39, 206.72 389.21, 206.67 388.64 C 206.62 388.08, 206.59 387.65, 206.74 386.67 C 206.89 385.69, 206.97 385.03, 207.40 383.73 C 207.84 382.43, 208.08 381.65, 208.92 380.19 C 209.76 378.72, 210.27 377.94, 211.60 376.40 C 212.93 374.87, 213.76 374.05, 215.56 372.51 C 217.35 370.98, 218.40 370.20, 220.56 368.73 C 222.72 367.26, 223.90 366.54, 226.35 365.16 C 228.79 363.78, 230.16 363.09, 232.78 361.81 C 235.40 360.53, 236.77 359.90, 239.45 358.75 C 242.12 357.59, 243.50 357.09, 246.14 356.02 C 248.79 354.96, 250.16 354.43, 252.66 353.41 C 255.17 352.38, 256.41 351.85, 258.67 350.90 C 260.93 349.94, 262.04 349.52, 263.96 348.62 C 265.88 347.73, 266.85 347.25, 268.26 346.44 C 269.67 345.63, 270.20 345.21, 271.02 344.57 C 271.84 343.92, 272.14 343.58, 272.35 343.22 C 272.55 342.86, 272.44 342.72, 272.04 342.78 C 271.65 342.83, 271.28 343.07, 270.36 343.50 C 269.44 343.92, 268.88 344.20, 267.44 344.89 C 266.01 345.58, 265.09 346.09, 263.19 346.94 C 261.29 347.79, 260.19 348.22, 257.94 349.16 C 255.69 350.10, 254.44 350.61, 251.94 351.63 C 249.44 352.65, 248.08 353.18, 245.43 354.26 C 242.78 355.34, 241.40 355.86, 238.70 357.02 C 236.00 358.19, 234.62 358.81, 231.95 360.09 C 229.28 361.37, 227.87 362.02, 225.37 363.41 C 222.86 364.80, 221.64 365.53, 219.41 367.04 C 217.17 368.54, 216.08 369.33, 214.20 370.93 C 212.33 372.53, 211.45 373.40, 210.03 375.04 C 208.60 376.68, 208.04 377.53, 207.09 379.12 C 206.15 380.72, 205.79 381.55, 205.30 383.03 C 204.81 384.51, 204.64 385.30, 204.63 386.52 C 204.61 387.74, 204.82 388.35, 205.23 389.13 C 205.63 389.91, 205.98 390.19, 206.66 390.43 C 207.33 390.66, 207.75 390.68, 208.62 390.30 C 209.50 389.91, 210.00 389.54, 211.03 388.50 C 212.05 387.45, 212.57 386.72, 213.75 385.09 C 214.93 383.45, 215.57 382.45, 216.92 380.30 C 218.26 378.16, 219.01 376.89, 220.49 374.37 C 221.96 371.85, 222.74 370.42, 224.30 367.71 C 225.87 364.99, 226.67 363.50, 228.32 360.80 C 229.96 358.09, 230.87 356.72, 232.52 354.18 C 234.18 351.65, 235.09 350.37, 236.59 348.12 C 238.10 345.87, 238.90 344.75, 240.06 342.93 C 241.21 341.11, 241.81 340.27, 242.38 339.01 C 242.96 337.74, 243.07 337.16, 242.91 336.60 C 242.76 336.05, 242.42 335.95, 241.61 336.21 C 240.80 336.47, 240.20 336.96, 238.86 337.89 C 237.53 338.81, 236.64 339.61, 234.93 340.85 C 233.22 342.09, 232.20 342.85, 230.32 344.08 C 228.44 345.30, 227.36 345.95, 225.51 346.99 C 223.65 348.02, 222.65 348.51, 221.05 349.25 C 219.45 349.99, 218.70 350.31, 217.52 350.69 C 216.35 351.08, 215.83 351.19, 215.18 351.18 C 214.53 351.17, 214.38 351.09, 214.26 350.64 C 214.13 350.18, 214.21 349.80, 214.56 348.93 C 214.90 348.06, 215.22 347.45, 215.98 346.28 C 216.75 345.10, 217.36 344.38, 218.39 343.05 C 219.42 341.73, 220.19 340.96, 221.16 339.65 C 222.13 338.34, 222.69 337.61, 223.24 336.51 C 223.79 335.40, 223.98 334.85, 223.89 334.12 C 223.80 333.39, 223.57 333.11, 222.78 332.88 C 221.99 332.64, 221.36 332.74, 219.96 332.95 C 218.56 333.16, 217.64 333.47, 215.79 333.95 C 213.94 334.43, 212.78 334.80, 210.71 335.34 C 208.64 335.88, 207.46 336.22, 205.44 336.65 C 203.42 337.07, 202.36 337.25, 200.62 337.46 C 198.87 337.67, 198.00 337.70, 196.73 337.71 C 195.45 337.71, 194.94 337.60, 194.24 337.50 C 193.53 337.41, 193.40 337.28, 193.19 337.24 C 192.99 337.19, 193.09 337.28, 193.20 337.28 C 193.31 337.27, 193.48 337.22, 193.72 337.22 C 193.97 337.21, 194.24 337.06, 194.41 337.25 C 194.59 337.44, 194.74 337.57, 194.60 338.17 C 194.47 338.77, 194.35 339.25, 193.76 340.24 C 193.17 341.22, 192.73 341.90, 191.65 343.09 C 190.57 344.28, 189.82 345.01, 188.35 346.19 C 186.89 347.38, 185.93 348.05, 184.31 349.03 C 182.69 350.01, 181.75 350.46, 180.26 351.10 C 178.77 351.74, 177.98 351.98, 176.87 352.23 C 175.75 352.48, 175.28 352.54, 174.69 352.35 C 174.11 352.16, 173.92 351.95, 173.94 351.28 C 173.95 350.62, 174.12 350.12, 174.77 349.02 C 175.43 347.92, 175.99 347.15, 177.20 345.78 C 178.42 344.42, 179.27 343.55, 180.84 342.19 C 182.40 340.84, 183.47 340.09, 185.04 339.01 C 186.60 337.92, 187.49 337.45, 188.65 336.76 C 189.80 336.06, 190.30 335.86, 190.82 335.52 C 191.34 335.17, 191.35 335.08, 191.23 335.03 C 191.11 334.98, 190.80 335.10, 190.23 335.27 C 189.66 335.43, 189.29 335.63, 188.37 335.87 C 187.46 336.10, 186.84 336.25, 185.67 336.43 C 184.50 336.61, 183.80 336.68, 182.54 336.78 C 181.29 336.87, 180.62 336.92, 179.38 336.90 C 178.15 336.89, 177.55 336.82, 176.37 336.71 C 175.19 336.59, 174.64 336.45, 173.49 336.33 C 172.35 336.21, 171.80 336.09, 170.65 336.12 C 169.50 336.14, 168.93 336.14, 167.74 336.45 C 166.55 336.77, 165.95 337.02, 164.72 337.68 C 163.48 338.34, 162.85 338.79, 161.58 339.76 C 160.32 340.74, 159.65 341.37, 158.38 342.56 C 157.11 343.75, 156.39 344.50, 155.23 345.71 C 154.07 346.93, 153.43 347.60, 152.60 348.65 C 151.76 349.70, 151.42 350.25, 151.04 350.96 C 150.67 351.67, 150.65 352.00, 150.72 352.21 C 150.80 352.43, 151.00 352.41, 151.41 352.04 C 151.82 351.67, 152.16 351.27, 152.78 350.36 C 153.39 349.45, 153.90 348.72, 154.50 347.51 C 155.10 346.30, 155.47 345.45, 155.76 344.32 C 156.05 343.20, 156.10 342.55, 155.95 341.89 C 155.80 341.23, 155.63 340.96, 155.00 341.02 C 154.36 341.09, 153.92 341.41, 152.76 342.23 C 151.60 343.04, 150.82 343.83, 149.21 345.10 C 147.59 346.37, 146.62 347.20, 144.70 348.57 C 142.78 349.94, 141.66 350.75, 139.60 351.94 C 137.54 353.13, 136.38 353.70, 134.41 354.53 C 132.44 355.36, 131.41 355.71, 129.75 356.10 C 128.09 356.50, 127.32 356.62, 126.11 356.52 C 124.90 356.41, 124.39 356.21, 123.69 355.58 C 122.99 354.96, 122.76 354.50, 122.62 353.38 C 122.47 352.26, 122.54 351.50, 122.97 349.98 C 123.39 348.46, 123.78 347.50, 124.74 345.79 C 125.70 344.07, 126.47 343.05, 127.77 341.39 C 129.07 339.73, 129.99 338.81, 131.25 337.49 C 132.51 336.17, 133.17 335.56, 134.08 334.80 C 134.99 334.03, 135.39 333.77, 135.78 333.65 C 136.17 333.54, 136.19 333.67, 136.01 334.24 C 135.83 334.80, 135.54 335.37, 134.87 336.48 C 134.20 337.60, 133.73 338.39, 132.66 339.80 C 131.58 341.22, 130.88 342.07, 129.50 343.55 C 128.11 345.03, 127.30 345.85, 125.74 347.19 C 124.17 348.52, 123.31 349.19, 121.69 350.22 C 120.07 351.24, 119.21 351.65, 117.63 352.30 C 116.04 352.95, 115.25 353.18, 113.76 353.47 C 112.28 353.75, 111.58 353.77, 110.21 353.71 C 108.84 353.65, 108.21 353.50, 106.92 353.18 C 105.62 352.87, 105.03 352.59, 103.74 352.13 C 102.46 351.66, 101.85 351.28, 100.50 350.84 C 99.14 350.40, 98.46 350.12, 96.97 349.93 C 95.47 349.73, 94.69 349.66, 93.03 349.86 C 91.37 350.06, 90.43 350.25, 88.68 350.91 C 86.92 351.58, 85.95 352.13, 84.24 353.18 C 82.53 354.23, 81.58 354.94, 80.14 356.18 C 78.69 357.41, 77.91 358.17, 77.01 359.34 C 76.10 360.51, 75.82 361.22, 75.61 362.01 C 75.40 362.81, 75.58 363.18, 75.97 363.31 C 76.36 363.45, 76.70 363.35, 77.56 362.68 C 78.43 362.02, 78.99 361.45, 80.29 359.98 C 81.60 358.52, 82.44 357.49, 84.10 355.35 C 85.77 353.21, 86.69 351.88, 88.62 349.27 C 90.54 346.66, 91.60 345.15, 93.72 342.28 C 95.84 339.41, 97.01 337.85, 99.22 334.92 C 101.44 331.99, 102.64 330.45, 104.80 327.63 C 106.96 324.80, 108.04 323.35, 110.01 320.80 C 111.99 318.24, 112.98 317.01, 114.68 314.85 C 116.37 312.70, 117.10 311.70, 118.49 310.02 C 119.88 308.34, 120.51 307.62, 121.62 306.44 C 122.72 305.26, 123.23 304.83, 124.01 304.13 C 124.78 303.42, 125.06 303.22, 125.50 302.93 C 125.93 302.64, 126.00 302.59, 126.17 302.67 C 126.33 302.75, 126.34 302.87, 126.30 303.34 C 126.26 303.80, 126.24 304.19, 125.98 305.00 C 125.72 305.82, 125.55 306.33, 124.99 307.41 C 124.42 308.49, 124.05 309.10, 123.15 310.41 C 122.26 311.72, 121.74 312.52, 120.50 313.95 C 119.25 315.39, 118.51 316.10, 116.93 317.59 C 115.35 319.08, 114.44 319.88, 112.58 321.41 C 110.72 322.93, 109.68 323.74, 107.63 325.22 C 105.57 326.70, 104.43 327.46, 102.31 328.82 C 100.19 330.18, 99.07 330.85, 97.03 332.03 C 94.98 333.22, 93.84 333.80, 92.10 334.76 C 90.35 335.72, 89.48 336.11, 88.30 336.82 C 87.12 337.53, 86.55 337.87, 86.20 338.31 C 85.84 338.75, 85.95 339.00, 86.52 339.02" style="stroke: black; fill: black;"/><path d="M 318.96,313.91 C 318.66 313.97, 318.51 314.02, 318.03 314.59 C 317.55 315.15, 317.23 315.50, 316.56 316.72 C 315.89 317.93, 315.52 318.80, 314.68 320.67 C 313.84 322.54, 313.40 323.75, 312.35 326.07 C 311.30 328.39, 310.62 329.74, 309.44 332.25 C 308.26 334.77, 307.54 336.19, 306.43 338.65 C 305.33 341.12, 304.75 342.44, 303.92 344.60 C 303.09 346.75, 302.66 347.81, 302.28 349.44 C 301.91 351.06, 301.82 351.78, 302.05 352.74 C 302.27 353.69, 302.60 354.03, 303.41 354.20 C 304.22 354.38, 304.85 354.23, 306.10 353.61 C 307.35 352.98, 308.13 352.36, 309.67 351.09 C 311.21 349.81, 312.10 348.87, 313.79 347.23 C 315.48 345.58, 316.47 344.55, 318.11 342.87 C 319.76 341.19, 320.71 340.16, 322.01 338.82 C 323.31 337.48, 323.92 336.80, 324.61 336.18 C 325.29 335.56, 325.38 335.48, 325.43 335.71 C 325.48 335.94, 325.21 336.32, 324.85 337.32 C 324.49 338.33, 324.05 339.23, 323.61 340.73 C 323.17 342.24, 322.92 343.29, 322.67 344.86 C 322.41 346.44, 322.26 347.28, 322.36 348.60 C 322.45 349.93, 322.58 350.59, 323.13 351.49 C 323.68 352.39, 324.11 352.80, 325.10 353.12 C 326.10 353.44, 326.76 353.46, 328.12 353.08 C 329.48 352.71, 330.30 352.33, 331.89 351.24 C 333.49 350.16, 334.39 349.36, 336.11 347.66 C 337.82 345.96, 338.76 344.86, 340.46 342.73 C 342.17 340.59, 343.12 339.32, 344.65 336.98 C 346.18 334.65, 346.95 333.33, 348.10 331.06 C 349.25 328.79, 349.79 327.59, 350.41 325.62 C 351.02 323.65, 351.18 322.71, 351.18 321.21 C 351.19 319.70, 350.92 319.04, 350.42 318.08 C 349.92 317.11, 349.48 316.80, 348.69 316.38 C 347.90 315.97, 347.24 315.87, 346.48 316.01 C 345.71 316.15, 345.12 316.72, 344.87 317.10 C 344.63 317.47, 344.89 317.81, 345.25 317.90 C 345.62 317.99, 346.14 317.60, 346.71 317.54 C 347.27 317.49, 347.58 317.39, 348.08 317.62 C 348.58 317.84, 348.90 317.96, 349.21 318.66 C 349.53 319.37, 349.74 319.87, 349.63 321.15 C 349.53 322.42, 349.36 323.24, 348.70 325.04 C 348.04 326.84, 347.50 327.99, 346.34 330.14 C 345.17 332.29, 344.41 333.57, 342.89 335.81 C 341.38 338.05, 340.43 339.29, 338.75 341.35 C 337.08 343.40, 336.15 344.45, 334.52 346.07 C 332.90 347.69, 332.03 348.41, 330.63 349.46 C 329.22 350.51, 328.54 350.86, 327.50 351.33 C 326.47 351.79, 326.07 351.88, 325.45 351.78 C 324.82 351.68, 324.63 351.47, 324.38 350.84 C 324.12 350.21, 324.07 349.72, 324.18 348.62 C 324.29 347.52, 324.56 346.79, 324.94 345.34 C 325.32 343.89, 325.76 342.91, 326.10 341.36 C 326.43 339.81, 326.64 338.81, 326.62 337.59 C 326.59 336.38, 326.50 335.79, 325.96 335.29 C 325.43 334.78, 325.02 334.66, 323.95 335.07 C 322.89 335.48, 322.12 336.10, 320.64 337.34 C 319.16 338.58, 318.24 339.65, 316.54 341.29 C 314.84 342.92, 313.85 343.93, 312.16 345.53 C 310.47 347.13, 309.51 347.98, 308.09 349.28 C 306.67 350.57, 305.99 351.22, 305.06 352.02 C 304.13 352.83, 303.83 353.18, 303.44 353.30 C 303.06 353.43, 303.04 353.33, 303.13 352.65 C 303.22 351.97, 303.39 351.37, 303.91 349.90 C 304.43 348.44, 304.83 347.40, 305.71 345.32 C 306.60 343.25, 307.18 341.94, 308.32 339.52 C 309.46 337.10, 310.19 335.70, 311.41 333.20 C 312.64 330.71, 313.35 329.35, 314.44 327.03 C 315.53 324.72, 316.04 323.51, 316.87 321.64 C 317.69 319.77, 318.08 318.93, 318.58 317.67 C 319.08 316.40, 319.19 315.99, 319.37 315.31 C 319.56 314.62, 319.59 314.53, 319.51 314.25 C 319.43 313.97, 319.26 313.84, 318.96 313.91" style="stroke: black; fill: black;"/><path d="M 374.49,335.87 C 374.57 335.53, 374.54 335.16, 374.21 334.63 C 373.89 334.10, 373.64 333.68, 372.86 333.21 C 372.08 332.75, 371.51 332.46, 370.32 332.32 C 369.12 332.18, 368.42 332.20, 366.89 332.52 C 365.37 332.84, 364.47 333.11, 362.70 333.91 C 360.93 334.71, 359.86 335.29, 358.06 336.52 C 356.26 337.74, 355.27 338.55, 353.69 340.04 C 352.11 341.52, 351.25 342.41, 350.14 343.95 C 349.04 345.49, 348.56 346.37, 348.17 347.73 C 347.77 349.09, 347.80 349.76, 348.15 350.75 C 348.50 351.74, 348.88 352.24, 349.92 352.70 C 350.96 353.15, 351.77 353.24, 353.35 353.03 C 354.93 352.81, 355.92 352.46, 357.82 351.61 C 359.72 350.76, 360.81 350.10, 362.84 348.79 C 364.87 347.48, 366.04 346.56, 367.97 345.06 C 369.90 343.56, 371.07 342.62, 372.49 341.29 C 373.91 339.96, 374.52 339.17, 375.07 338.41 C 375.63 337.65, 375.54 337.41, 375.26 337.49 C 374.98 337.57, 374.50 337.92, 373.69 338.79 C 372.88 339.67, 372.08 340.47, 371.21 341.88 C 370.34 343.28, 369.83 344.37, 369.35 345.84 C 368.87 347.31, 368.71 348.10, 368.83 349.22 C 368.94 350.33, 369.16 350.81, 369.93 351.41 C 370.70 352.02, 371.31 352.25, 372.69 352.24 C 374.06 352.23, 374.98 351.98, 376.82 351.35 C 378.65 350.71, 379.76 350.11, 381.85 349.06 C 383.94 348.00, 385.14 347.27, 387.28 346.06 C 389.42 344.84, 390.62 344.07, 392.56 342.98 C 394.50 341.88, 395.63 341.29, 397.00 340.58 C 398.36 339.88, 398.87 339.60, 399.38 339.46 C 399.89 339.32, 399.81 339.42, 399.55 339.87 C 399.29 340.32, 398.78 340.79, 398.08 341.69 C 397.38 342.60, 396.71 343.27, 396.04 344.40 C 395.37 345.53, 394.93 346.35, 394.74 347.35 C 394.55 348.35, 394.59 348.90, 395.10 349.40 C 395.62 349.90, 396.09 350.02, 397.32 349.86 C 398.54 349.70, 399.39 349.34, 401.23 348.62 C 403.07 347.90, 404.31 347.23, 406.51 346.27 C 408.70 345.31, 410.07 344.67, 412.19 343.84 C 414.31 343.00, 415.44 342.54, 417.10 342.11 C 418.76 341.68, 419.52 341.58, 420.50 341.70 C 421.48 341.81, 421.75 342.07, 422.01 342.68 C 422.27 343.30, 422.04 343.75, 421.78 344.78 C 421.51 345.81, 421.10 346.53, 420.68 347.83 C 420.26 349.14, 419.92 350.02, 419.67 351.30 C 419.42 352.58, 419.40 353.26, 419.43 354.24 C 419.45 355.22, 419.56 355.62, 419.78 356.20 C 420.00 356.77, 420.29 356.96, 420.53 357.10 C 420.77 357.23, 420.91 357.10, 420.99 356.88 C 421.07 356.66, 420.87 356.50, 420.91 356.00 C 420.95 355.50, 421.00 355.23, 421.18 354.39 C 421.35 353.55, 421.45 352.99, 421.79 351.81 C 422.13 350.63, 422.53 349.83, 422.88 348.47 C 423.24 347.12, 423.52 346.29, 423.57 345.02 C 423.61 343.75, 423.64 343.05, 423.09 342.12 C 422.53 341.19, 422.06 340.72, 420.79 340.36 C 419.52 339.99, 418.61 340.02, 416.74 340.30 C 414.87 340.58, 413.68 341.01, 411.44 341.74 C 409.19 342.48, 407.76 343.04, 405.53 343.96 C 403.29 344.89, 401.98 345.52, 400.24 346.37 C 398.50 347.23, 397.76 347.74, 396.83 348.23 C 395.89 348.73, 395.67 348.89, 395.57 348.86 C 395.47 348.83, 395.77 348.68, 396.32 348.08 C 396.87 347.48, 397.58 346.92, 398.32 345.86 C 399.06 344.79, 399.55 343.93, 400.00 342.76 C 400.46 341.58, 400.70 340.83, 400.58 339.99 C 400.47 339.14, 400.28 338.74, 399.43 338.53 C 398.58 338.32, 397.88 338.41, 396.31 338.93 C 394.74 339.45, 393.58 340.08, 391.56 341.12 C 389.54 342.16, 388.36 342.96, 386.21 344.13 C 384.06 345.30, 382.85 345.97, 380.81 346.99 C 378.77 348.00, 377.67 348.52, 376.00 349.21 C 374.34 349.91, 373.58 350.21, 372.50 350.46 C 371.41 350.71, 371.03 350.70, 370.59 350.46 C 370.15 350.23, 370.10 350.01, 370.28 349.27 C 370.46 348.52, 370.82 347.95, 371.49 346.75 C 372.15 345.55, 372.84 344.67, 373.60 343.27 C 374.37 341.88, 374.92 340.93, 375.33 339.78 C 375.74 338.64, 375.86 338.01, 375.65 337.55 C 375.45 337.08, 375.21 337.05, 374.31 337.48 C 373.41 337.91, 372.69 338.53, 371.15 339.69 C 369.61 340.85, 368.52 341.84, 366.61 343.28 C 364.70 344.72, 363.56 345.63, 361.61 346.88 C 359.66 348.14, 358.60 348.73, 356.87 349.56 C 355.14 350.40, 354.26 350.70, 352.96 351.06 C 351.66 351.42, 351.09 351.50, 350.36 351.37 C 349.63 351.24, 349.44 351.02, 349.31 350.40 C 349.17 349.78, 349.20 349.34, 349.68 348.28 C 350.16 347.23, 350.61 346.47, 351.70 345.14 C 352.78 343.80, 353.60 342.96, 355.12 341.60 C 356.65 340.24, 357.60 339.49, 359.30 338.35 C 361.00 337.22, 362.01 336.67, 363.62 335.92 C 365.24 335.17, 366.06 334.91, 367.36 334.60 C 368.65 334.29, 369.20 334.30, 370.10 334.38 C 371.01 334.46, 371.31 334.72, 371.88 335.00 C 372.45 335.28, 372.56 335.51, 372.95 335.77 C 373.33 336.03, 373.49 336.28, 373.80 336.30 C 374.11 336.32, 374.40 336.20, 374.49 335.87" style="stroke: black; fill: black;"/></svg>